<svg class="svg-icon" style="width: 1em; height: 1em;vertical-align: middle;fill: currentColor;overflow: hidden;" viewBox="0 0 1024 1024" version="1.1" xmlns="http://www.w3.org/2000/svg"><path d="M1024 1000H0v-82.8h1024V1000zM13.2 986.8h997.2v-56H13.2v56z" fill="#4A555F" /><path d="M244 930.8H83.6V475.2H244v455.6z m-147.2-13.2h134V488.4H96.8v429.2z" fill="#4A555F" /><path d="M112.4 504h102.8v397.6H112.4z" fill="#71CDE1" /><path d="M467.6 930.8H307.2V229.6h160.4v701.2z m-147.2-13.2h134V243.2H320.4v674.4z" fill="#4A555F" /><path d="M336 258.8h102.8v643.2H336z" fill="#F68F6F" /><path d="M691.2 930.8h-160.4V411.6h160.4v519.2z m-147.2-13.2h134V425.2H544v492.4z" fill="#4A555F" /><path d="M559.6 440.8h102.8v461.2h-102.8z" fill="#FFD552" /><path d="M928 930.8h-160.4V262H928v668.8z m-147.2-13.2h134V275.2h-134v642.4z" fill="#4A555F" /><path d="M796.4 290.8h102.8v610.8h-102.8z" fill="#E0E0E0" /><path d="M154.8 342.4c-26.4-1.2-46.8-23.2-45.6-49.6 1.2-26.4 23.2-46.8 49.6-45.6s46.8 23.2 45.6 49.6c-1.2 26-23.2 46.8-49.6 45.6z m3.2-82c-18.8-0.8-34.8 14-35.6 32.8-0.8 18.8 14 34.8 32.8 35.6 18.8 0.8 34.8-14 35.6-32.8 0.8-18.8-14-34.8-32.8-35.6z" fill="#4A555F" /><path d="M156 313.6c-10.4-0.4-18.4-9.2-18-19.2 0.4-10.4 9.2-18.4 19.2-18s18.4 9.2 18 19.2c-0.4 10.4-8.8 18.4-19.2 18z" fill="#71CDE1" /><path d="M384.8 119.2c-26.4 0-47.6-21.2-47.6-47.6S358.4 24 384.8 24c26.4 0 47.6 21.2 47.6 47.6s-21.6 47.6-47.6 47.6z m0-82c-18.8 0-34.4 15.2-34.4 34.4 0 18.8 15.2 34.4 34.4 34.4 18.8 0 34.4-15.2 34.4-34.4-0.4-18.8-15.6-34.4-34.4-34.4z" fill="#4A555F" /><path d="M384.8 90.4c-10.4 0-18.8-8.4-18.8-18.8s8.4-18.8 18.8-18.8 18.8 8.4 18.8 18.8-8.8 18.8-18.8 18.8z" fill="#71CDE1" /><path d="M610.8 338.4c-26.4 0-47.6-21.2-47.6-47.6 0-26.4 21.2-47.6 47.6-47.6s47.6 21.2 47.6 47.6c0 26.4-21.2 47.6-47.6 47.6z m0-82c-18.8 0-34.4 15.2-34.4 34.4 0 18.8 15.2 34.4 34.4 34.4s34.4-15.2 34.4-34.4c0-18.8-15.6-34.4-34.4-34.4z" fill="#4A555F" /><path d="M610.8 309.6c-10.4 0-18.8-8.4-18.8-18.8s8.4-18.8 18.8-18.8 18.8 8.4 18.8 18.8-8.4 18.8-18.8 18.8z" fill="#71CDE1" /><path d="M847.6 168.4c-26.4 0-47.6-21.2-47.6-47.6s21.2-47.6 47.6-47.6c26.4 0 47.6 21.2 47.6 47.6s-21.2 47.6-47.6 47.6z m0-82c-18.8 0-34.4 15.2-34.4 34.4s15.2 34.4 34.4 34.4c18.8 0 34.4-15.2 34.4-34.4s-15.6-34.4-34.4-34.4z" fill="#4A555F" /><path d="M847.6 139.6c-10.4 0-18.8-8.4-18.8-18.8s8.4-18.8 18.8-18.8 18.8 8.4 18.8 18.8-8.4 18.8-18.8 18.8z" fill="#71CDE1" /><path d="M208.8 248.8l-9.2-9.6 9.6-9.2 9.2 9.6-9.6 9.2z m19.2-18.4l-9.2-9.6 9.6-9.2 9.2 9.6-9.6 9.2z m19.2-18.8l-9.2-9.6 9.6-9.2 9.2 9.6-9.6 9.2z m19.2-18.8l-9.2-9.6 9.6-9.2 9.2 9.6-9.6 9.2z m18.8-18.8L276 164.4l9.6-9.2 9.2 9.6-9.6 9.2z m19.2-18.4l-9.2-9.6 9.6-9.2 9.2 9.6-9.6 9.2z m19.2-18.8l-9.2-9.6 9.6-9.2 9.2 9.6-9.6 9.2z" fill="#4A555F" /><path d="M554.8 241.2l-8.8-9.2 9.6-9.2 8.8 9.2-9.6 9.2z m-18-18.8l-9.2-9.6 9.6-9.2 9.2 9.6-9.6 9.2z m-18.8-19.2l-9.2-9.6 9.6-9.2 9.2 9.6-9.6 9.2z m-18.8-18.8l-9.2-9.6 9.6-9.2 9.2 9.6-9.6 9.2z m-18.8-19.2l-9.2-9.6 9.6-9.2 9.2 9.6-9.6 9.2z m-18.4-19.2l-9.2-9.6 9.6-9.2 9.2 9.6-9.6 9.2z m-18.8-19.2l-9.2-9.6 9.6-9.2 9.2 9.6-9.6 9.2z" fill="#4A555F" /><path d="M680.8 262l-8.4-10.4 10.4-8.4 8.4 10.4-10.4 8.4z m20.8-16.8l-8.4-10.4 10.4-8.4 8.4 10.4-10.4 8.4z m20.8-16.8l-8.4-10.4 10.4-8.4 8.4 10.4-10.4 8.4z m20.8-16.8l-8.4-10.4 10.4-8.4 8.4 10.4-10.4 8.4z m20.8-16.8l-8.4-10.4 10.4-8.4 8.4 10.4-10.4 8.4z m20.8-16.8l-8.4-10.4 10.4-8.4 8.4 10.4-10.4 8.4z" fill="#4A555F" /></svg>