<svg class="svg-icon" style="width: 1em; height: 1em;vertical-align: middle;fill: currentColor;overflow: hidden;" viewBox="0 0 1024 1024" version="1.1" xmlns="http://www.w3.org/2000/svg"><path d="M635.832558 1024H372.291473c-36.514729 0-66.67907-30.164341-66.67907-66.67907V455.64031c0-36.514729 30.164341-66.67907 66.67907-66.67907h263.541085c36.514729 0 66.67907 30.164341 66.67907 66.67907v501.68062c0 36.514729-30.164341 66.67907-66.67907 66.67907z m-263.541085-603.286822c-19.051163 0-34.927132 15.875969-34.927132 34.927132v501.68062c0 19.051163 15.875969 34.927132 34.927132 34.927132h263.541085c19.051163 0 34.927132-15.875969 34.927132-34.927132V455.64031c0-19.051163-15.875969-34.927132-34.927132-34.927132H372.291473z" fill="" /><path d="M686.635659 547.72093H337.364341c-9.525581 0-15.875969-6.350388-15.875969-15.875969s6.350388-15.875969 15.875969-15.875969h349.271318c9.525581 0 15.875969 6.350388 15.875969 15.875969s-6.350388 15.875969-15.875969 15.875969zM686.635659 896.992248H337.364341c-9.525581 0-15.875969-6.350388-15.875969-15.875969s6.350388-15.875969 15.875969-15.875969h349.271318c9.525581 0 15.875969 6.350388 15.875969 15.875969s-6.350388 15.875969-15.875969 15.875969zM527.875969 960.496124h-47.627907c-9.525581 0-15.875969-6.350388-15.875969-15.875969s6.350388-15.875969 15.875969-15.875969h47.627907c9.525581 0 15.875969 6.350388 15.875969 15.875969s-6.350388 15.875969-15.875969 15.875969zM480.248062 452.465116h127.007752v31.751938h-127.007752zM416.744186 452.465116h31.751938v31.751938h-31.751938zM721.562791 257.190698c-3.175194 0-7.937984-1.587597-9.525582-3.175194 0 0-1.587597 0-1.587597-1.587597-109.544186-109.544186-288.942636-109.544186-398.486821 0-6.350388 6.350388-15.875969 6.350388-22.226357 0-6.350388-6.350388-6.350388-15.875969 0-22.226357 58.741085-58.741085 138.12093-92.08062 222.263566-92.08062 84.142636 0 163.522481 33.339535 222.263566 92.08062 4.762791 6.350388 6.350388 14.288372 0 20.63876-3.175194 3.175194-7.937984 6.350388-12.700775 6.350388z" fill="" /><path d="M211.944186 161.934884c-4.762791 0-7.937984-1.587597-11.113178-4.762791-6.350388-6.350388-6.350388-15.875969 0-22.226357 171.460465-171.460465 449.289922-171.460465 620.750387 0 6.350388 6.350388 6.350388 15.875969 0 22.226357s-15.875969 6.350388-22.226356 0c-158.75969-158.75969-417.537984-158.75969-576.297675 0-3.175194 3.175194-7.937984 4.762791-11.113178 4.762791zM616.781395 336.570543c-4.762791 0-7.937984-1.587597-11.113178-4.762791a133.19938 133.19938 0 0 0-188.924031 0c-6.350388 6.350388-15.875969 6.350388-22.226357 0-6.350388-6.350388-6.350388-15.875969 0-22.226357 65.091473-65.091473 169.872868-65.091473 233.376745 0l1.587597 1.587597c4.762791 6.350388 4.762791 17.463566-3.175194 22.226357-3.175194 1.587597-6.350388 3.175194-9.525582 3.175194z" fill="" /></svg>