<svg class="svg-icon" style="width: 1em; height: 1em;vertical-align: middle;fill: currentColor;overflow: hidden;" viewBox="0 0 1024 1024" version="1.1" xmlns="http://www.w3.org/2000/svg"><path d="M594.624 610.304C602.944 624.512 608 640.832 608 658.432c0 52.992-42.944 96-96 96s-96-43.008-96-96 42.944-96 96-96c4.8 0 9.344 0.704 13.952 1.408l257.92-322.112 21.12 13.248L594.624 610.304zM512 256c41.216 0 80.768 6.848 118.016 19.008 2.816 0.896 32 6.016 43.008-19.008 10.432-23.744-11.072-38.08-19.968-41.088C608.64 200.128 561.344 192 512 192c-247.424 0-448 200.576-448 448 0 41.408 6.08 81.344 16.64 119.424 0 0 18.432 28.224 46.4 13.76 23.104-12.032 15.488-28.864 13.504-36.544C132.352 705.728 128 673.408 128 640 128 428.224 300.224 256 512 256zM828.032 372.992c-19.008 19.008-4.48 43.392-2.752 45.952C869.632 481.536 896 557.696 896 640c0 36.48-5.248 71.744-14.72 105.152-1.408 4.8 0.064 30.144 20.736 34.304 31.424 6.4 41.344-19.968 41.344-19.968C953.92 721.344 960 681.408 960 640c0-98.432-31.744-189.376-85.632-263.168C868.544 368.832 842.112 358.848 828.032 372.992z"  /></svg>